<svg xmlns="http://www.w3.org/2000/svg" viewBox="0 0 370.84 72"><defs><style>.cls-1{fill:blue;}.cls-2{fill:#fff;}</style></defs><title>Asset 3</title><g id="Layer_2" data-name="Layer 2"><g id="Layer_1-2" data-name="Layer 1"><path class="cls-1" d="M140.49,64.21a6.53,6.53,0,0,0,4.12,1,9.32,9.32,0,0,1-.55,3.17A8.45,8.45,0,0,1,142.62,71h-22a8.27,8.27,0,0,1-1.45-2.62,9.56,9.56,0,0,1-.54-3.17c2,0,3.39-.33,4.21-1s1.22-1.84,1.22-3.53v-18H104.12v18c0,1.69.41,2.87,1.23,3.53s2.22,1,4.21,1a9.56,9.56,0,0,1-.54,3.17A8.68,8.68,0,0,1,107.57,71H85.47A8.27,8.27,0,0,1,84,68.38a9.56,9.56,0,0,1-.54-3.17c2,0,3.39-.33,4.21-1s1.22-1.84,1.22-3.53V18.11a4.48,4.48,0,0,0-1.22-3.57c-.82-.7-2.22-1-4.21-1A9.2,9.2,0,0,1,84,10.42a8.21,8.21,0,0,1,1.45-2.63h22.1A8.62,8.62,0,0,1,109,10.42a9.2,9.2,0,0,1,.54,3.07c-2,0-3.4.35-4.21,1a4.45,4.45,0,0,0-1.23,3.57V35.05h19.93V18.11a4.36,4.36,0,0,0-1.27-3.57,6.54,6.54,0,0,0-4.16-1,9.2,9.2,0,0,1,.54-3.07,8.21,8.21,0,0,1,1.45-2.63h22a8.39,8.39,0,0,1,1.44,2.63,9,9,0,0,1,.55,3.07,6.32,6.32,0,0,0-4.12,1,4.45,4.45,0,0,0-1.23,3.57V60.68C139.26,62.37,139.67,63.55,140.49,64.21Z"/><path class="cls-1" d="M194.46,64a4.35,4.35,0,0,0,3.22,1.63V68.2a9.53,9.53,0,0,1-4.48,2.53,21.51,21.51,0,0,1-6.12.91A8.55,8.55,0,0,1,181.83,70a7.83,7.83,0,0,1-2.9-4.53q-4.35,6.17-12.41,6.16-6.33,0-9.87-3.9t-3.53-10.5V32.33A2.29,2.29,0,0,0,152,30.16a7,7,0,0,0-3.31-.64v-4a16.08,16.08,0,0,1,5.21-2.17,29.86,29.86,0,0,1,8.2-1.09,15.68,15.68,0,0,1,3.71.32,2.36,2.36,0,0,1,1.63,1.31,8.2,8.2,0,0,1,.45,3.17V57.51a7.58,7.58,0,0,0,1,4.21,3.5,3.5,0,0,0,3.13,1.4A6.5,6.5,0,0,0,175.53,62a12,12,0,0,0,3-2.76V32.33q0-2.8-5.07-2.81v-4a15.39,15.39,0,0,1,5.3-2.22,32.46,32.46,0,0,1,8.46-1c2.48,0,4.11.29,4.89.86s1.18,1.89,1.18,3.94V60.41A5.71,5.71,0,0,0,194.46,64Z"/><path class="cls-1" d="M238.16,24.68a18.29,18.29,0,0,1,7,7.83,28.59,28.59,0,0,1,2.63,12.86,29.67,29.67,0,0,1-3.3,14.45,22.38,22.38,0,0,1-8.93,9.1A25.57,25.57,0,0,1,223,72a63.21,63.21,0,0,1-9.83-.86,30.74,30.74,0,0,1-8.38-2.31V12.5q0-4.44-5.52-4.44V5.16a29.23,29.23,0,0,1,7.83-3.62A27.18,27.18,0,0,1,215,0a4.13,4.13,0,0,1,3.07,1A4.57,4.57,0,0,1,219,4.17V17l-.27,8.6q3.44-3.52,10-3.53A18.3,18.3,0,0,1,238.16,24.68ZM229.74,61.4q2.44-4,2.44-12.95,0-9.42-2.67-14T222.4,29.8a6,6,0,0,0-3.44,1V63.67a5.89,5.89,0,0,0,4.35,1.72C226,65.39,228.11,64.06,229.74,61.4Z"/><path class="cls-1" d="M289.87,58.14a6.14,6.14,0,0,1,1.27,2.18,7.39,7.39,0,0,1,.54,2.53c0,1.09-.72,2.34-2.17,3.76a18.25,18.25,0,0,1-6,3.67,25.13,25.13,0,0,1-20.38-1.36,19.24,19.24,0,0,1-7.74-8.42,29.25,29.25,0,0,1-2.72-13A29.5,29.5,0,0,1,255.59,34,21.55,21.55,0,0,1,263.7,25a22.12,22.12,0,0,1,11.68-3.12q8.25,0,13.13,4.8T293.4,40a13.19,13.19,0,0,1-1.26,6.29q-1.27,2.31-4.53,2.31H268.05q.54,13.14,11.23,13.14A17.41,17.41,0,0,0,289.87,58.14ZM270.13,31.29q-1.9,3.12-2.08,10.46h9.14a1.85,1.85,0,0,0,1.9-1,7.62,7.62,0,0,0,.46-3.07c0-3.57-.43-6-1.27-7.43a3.87,3.87,0,0,0-3.44-2.08Q272,28.17,270.13,31.29Z"/><path class="cls-1" d="M335.07,23.91a8.18,8.18,0,0,1,1.9,5.7,9.56,9.56,0,0,1-2,6.34,6.78,6.78,0,0,1-5.48,2.45,6.85,6.85,0,0,1-4.85-1.72,5.41,5.41,0,0,1-1.85-4.08,7.47,7.47,0,0,1,.27-2.26,12.87,12.87,0,0,0-5.52,2.81V60.32a7.48,7.48,0,0,0,.63,3.44,4,4,0,0,0,2.49,1.76,19.39,19.39,0,0,0,5.57.59,9.27,9.27,0,0,1-.36,2.77A5.32,5.32,0,0,1,324.47,71H300.29a6.67,6.67,0,0,1-2.09-4.89A5.14,5.14,0,0,0,302,65c.76-.75,1.13-2,1.13-3.85V35a4,4,0,0,0-1.31-3.44c-.87-.67-2.43-1-4.66-1V26.45a33.23,33.23,0,0,1,7.92-3,32.35,32.35,0,0,1,7.66-1.31,3.26,3.26,0,0,1,3.07,1.54q.92,1.55.91,6.16a15.88,15.88,0,0,1,5.16-5.53,12.6,12.6,0,0,1,7.25-2.44C331.8,21.83,333.8,22.52,335.07,23.91Z"/><path class="cls-1" d="M358.34,31.06V56.6c0,1.82.36,3.07,1.09,3.76a4.24,4.24,0,0,0,3.08,1,8.5,8.5,0,0,0,3.62-.9,8.28,8.28,0,0,0,3-2.27,4.15,4.15,0,0,1,1.31,2.18,9.82,9.82,0,0,1,.41,2.62,6.92,6.92,0,0,1-1.45,4.08A10.4,10.4,0,0,1,365,70.37a17.39,17.39,0,0,1-7,1.27q-6.35,0-10.19-3.62T344,56V31.06h-5.7V25.54a7.72,7.72,0,0,0,4.57-3,24.17,24.17,0,0,0,3.8-6.71,31.26,31.26,0,0,0,2-8,18.41,18.41,0,0,1,3-.27,6,6,0,0,1,4.84,1.85,6.21,6.21,0,0,1,1.59,4.12V23h10.5a34.59,34.59,0,0,1-.27,4.67,8.52,8.52,0,0,1-1.17,3.39Z"/><path class="cls-1" d="M23.74,31.37,40.37,14.74a19.62,19.62,0,0,1,27.73,0h0a19.61,19.61,0,0,1,0,27.72L42.84,67.72a7.42,7.42,0,0,1-10.48,0L23.74,59.1A19.62,19.62,0,0,1,23.74,31.37Z"/><path class="cls-2" d="M36.24,67.39A4.85,4.85,0,0,1,32.77,66L7.51,40.7A17.1,17.1,0,1,1,31.7,16.51L48.33,33.14a17.1,17.1,0,0,1,0,24.19L39.71,66A4.87,4.87,0,0,1,36.24,67.39Z"/><path class="cls-1" d="M19.6,14a14.52,14.52,0,0,1,10.33,4.28L46.56,34.91a14.59,14.59,0,0,1,0,20.65l-8.62,8.62a2.4,2.4,0,0,1-3.41,0L9.28,38.93a14.62,14.62,0,0,1,0-20.63l0,0A14.49,14.49,0,0,1,19.6,14m0-5A19.54,19.54,0,0,0,5.74,14.74h0a19.61,19.61,0,0,0,0,27.72L31,67.72a7.41,7.41,0,0,0,10.48,0L50.1,59.1a19.62,19.62,0,0,0,0-27.73L33.46,14.74A19.51,19.51,0,0,0,19.6,9Z"/></g></g></svg>